<svg xmlns="http://www.w3.org/2000/svg" width="16" height="16" viewBox="0 0 16 16">
    <path fill="#D7D7D7" fill-rule="evenodd" d="M7.06 0h1.88c1.34.004 1.647.016 2.358.048.852.039 1.433.174 1.942.372.526.204.973.478 1.417.923.445.444.719.89.923 1.417.198.509.333 1.09.372 1.942C15.99 5.555 16 5.827 16 8s-.01 2.445-.048 3.298c-.039.852-.174 1.433-.372 1.942a3.922 3.922 0 0 1-.923 1.417c-.444.445-.89.719-1.417.923-.509.198-1.09.333-1.942.372C10.445 15.99 10.173 16 8 16s-2.445-.01-3.298-.048c-.852-.039-1.433-.174-1.942-.372a3.922 3.922 0 0 1-1.417-.923A3.921 3.921 0 0 1 .42 13.24c-.198-.509-.333-1.09-.372-1.942A42.415 42.415 0 0 1 .001 8.94V7.061C.004 5.72.016 5.413.048 4.7.087 3.852.222 3.27.42 2.76c.204-.526.478-.973.923-1.417.444-.445.89-.719 1.417-.923C3.269.222 3.85.087 4.702.048A42.415 42.415 0 0 1 7.06.001h1.878zm1.658 1.442H7.282c-1.49.002-1.777.012-2.515.046-.78.036-1.203.166-1.485.276-.374.145-.64.318-.92.598-.28.28-.453.546-.598.92-.11.282-.24.705-.276 1.485-.034.738-.044 1.024-.046 2.515v1.436c.002 1.49.012 1.777.046 2.515.036.78.166 1.203.276 1.485.145.374.318.64.598.92.28.28.546.453.92.598.282.11.705.24 1.485.276.738.034 1.024.044 2.515.046h1.436c1.49-.002 1.777-.012 2.515-.046.78-.036 1.203-.166 1.485-.276.374-.145.64-.318.92-.598.28-.28.453-.546.598-.92.11-.282.24-.705.276-1.485.034-.738.044-1.024.046-2.515V7.282c-.002-1.49-.012-1.777-.046-2.515-.036-.78-.166-1.203-.276-1.485a2.478 2.478 0 0 0-.598-.92 2.478 2.478 0 0 0-.92-.598c-.282-.11-.705-.24-1.485-.276-.738-.034-1.024-.044-2.515-.046zM8 3.892a4.108 4.108 0 1 1 0 8.216 4.108 4.108 0 0 1 0-8.216zm0 1.441a2.667 2.667 0 1 0 0 5.334 2.667 2.667 0 0 0 0-5.334zm4.27-2.563a.96.96 0 1 1 0 1.92.96.96 0 0 1 0-1.92z"/>
</svg>
