<svg xmlns="http://www.w3.org/2000/svg" width="48" height="48" viewBox="0 0 48 48">
    <path fill="#D7D7D7" fill-rule="evenodd" d="M24.412 7.001c2.438.009 14.967.098 18.341 1.002a6.011 6.011 0 0 1 4.244 4.243C48 15.99 48 23.8 48 23.8s0 7.81-1.003 11.553a6.01 6.01 0 0 1-4.244 4.244c-3.427.918-16.297.996-18.447 1.002h-.612c-2.15-.006-15.02-.084-18.447-1.002a6.01 6.01 0 0 1-4.244-4.244C.093 31.956.01 25.211.001 23.991v-.383c.008-1.22.092-7.965 1.002-11.362a6.011 6.011 0 0 1 4.244-4.243C8.62 7.099 21.15 7.01 23.587 7zM19.2 16.6V31l12.47-7.2-12.47-7.2z"/>
</svg>
